<?xml version="1.0" encoding="utf-8"?>
<!-- Generator: Adobe Illustrator 27.7.0, SVG Export Plug-In . SVG Version: 6.00 Build 0)  -->
<svg version="1.1" id="cg-0" xmlns:svgjs="http://svgjs.dev/svgjs"
	 xmlns="http://www.w3.org/2000/svg" xmlns:xlink="http://www.w3.org/1999/xlink" x="0px" y="0px" viewBox="0 0 1500 465"
	 style="enable-background:new 0 0 1500 465;" xml:space="preserve">
<style type="text/css">
	.st0{fill:#2D2D55;}
	.st1{fill:#D6BCFD;}
	.st2{display:none;fill:none;}
</style>
<g transform="matrix(1,0,0,1,-0.9090909090909918,0.12721263719078024)">
	<g id="tight-bounds" transform="matrix(1,0,0,1,0.2400000000000091,-0.03364979435369264)">
		<g>
			<g transform="matrix(1,0,0,1,0,76.06052836101678)">
				<g id="textblocktransform">
					<g>
						<g transform="matrix(1,0,0,1,0,0)">
							<path id="text-0" class="st0" d="M42.8,386.1L42.8,386.1H11.5c-3.2,0-5.6-0.7-7.1-2.2c-1.5-1.5-2.2-3.8-2.2-7.1l0,0v-131
								c0-1.8,0.2-3.2,0.7-4.4c0.5-1.2,1.2-2.2,2.1-3l0,0l26.1-22c0.7-0.5,1.6-1,2.7-1.3c1.1-0.3,2.4-0.5,3.7-0.5l0,0h90.2
								c3.2,0,5.6,0.7,7.1,2.2s2.2,3.8,2.2,7.1l0,0v24.1c0,1.8-0.2,3.2-0.7,4.4c-0.5,1.2-1.2,2.2-2.1,3l0,0l-22.6,18.8
								c3.1,0,5.4,0.7,6.9,2.2c1.5,1.5,2.2,3.8,2.2,7.1l0,0v24.3c0,1.8-0.2,3.2-0.7,4.4c-0.5,1.2-1.2,2.2-2.1,3l0,0l-26.3,21.8
								c-0.5,0.5-1.4,1-2.5,1.4c-1.2,0.4-2.4,0.6-3.8,0.6l0,0h-7.1v15.8c0,1.8-0.2,3.2-0.7,4.4c-0.5,1.2-1.2,2.2-2.1,3l0,0L49.1,384
								c-0.5,0.5-1.4,1-2.5,1.4C45.4,385.9,44.2,386.1,42.8,386.1z M37.6,362h31.3c2.6,0,4.4-0.6,5.6-1.7c1.1-1.1,1.7-3,1.7-5.5l0,0
								v-39.8h35.2c2.6,0,4.4-0.6,5.6-1.7c1.1-1.1,1.7-3,1.7-5.5l0,0v-24.3c0-2.6-0.6-4.4-1.7-5.6c-1.2-1.1-3-1.7-5.6-1.7l0,0H76.2
								v-21h51.6c2.6,0,4.4-0.6,5.6-1.7c1.1-1.1,1.7-3,1.7-5.5l0,0v-24.1c0-2.6-0.6-4.4-1.7-5.6c-1.2-1.1-3-1.7-5.6-1.7l0,0H37.6
								c-2.6,0-4.4,0.6-5.5,1.7c-1.2,1.2-1.7,3-1.7,5.6l0,0v131c0,2.6,0.6,4.4,1.7,5.5C33.1,361.4,35,362,37.6,362L37.6,362z
								 M54.3,343.8h-2V234.6h64.5v2H54.3v57.8h46.1v2H54.3V343.8z M259.5,386.1L259.5,386.1H156.6c-3.2,0-5.6-0.7-7.1-2.2
								c-1.5-1.5-2.2-3.8-2.2-7.1l0,0v-131c0-1.8,0.2-3.2,0.7-4.4c0.5-1.2,1.2-2.2,2.1-3l0,0l26.1-22c0.7-0.5,1.6-1,2.7-1.3
								c1.2-0.3,2.4-0.5,3.8-0.5l0,0H214c3.2,0,5.6,0.7,7.1,2.2c1.5,1.5,2.2,3.8,2.2,7.1l0,0V306l0.4-0.4l26.1-22
								c0.7-0.5,1.6-1,2.7-1.3c1.2-0.3,2.4-0.5,3.8-0.5l0,0h29.3c3.2,0,5.6,0.7,7.1,2.2c1.5,1.5,2.2,3.8,2.2,7.1l0,0v63.7
								c0,1.8-0.2,3.2-0.7,4.4c-0.5,1.2-1.2,2.2-2.1,3l0,0L265.8,384c-0.5,0.5-1.4,1-2.5,1.4C262.1,385.9,260.9,386.1,259.5,386.1z
								 M182.7,362h102.9c2.6,0,4.4-0.6,5.5-1.7c1.2-1.1,1.7-3,1.7-5.5l0,0V291c0-2.6-0.6-4.4-1.7-5.6c-1.1-1.1-3-1.7-5.5-1.7l0,0
								h-29.3c-2.6,0-4.4,0.6-5.6,1.7c-1.1,1.2-1.7,3-1.7,5.6l0,0v32.8h-27.7V223.7c0-2.6-0.6-4.4-1.7-5.6c-1.1-1.1-3-1.7-5.5-1.7
								l0,0h-31.3c-2.6,0-4.4,0.6-5.6,1.7c-1.1,1.2-1.7,3-1.7,5.6l0,0v131c0,2.6,0.6,4.4,1.7,5.5C178.3,361.4,180.1,362,182.7,362
								L182.7,362z M271.9,343.8h-74.4V234.6h2v107.2h70.4V302h2V343.8z M356.6,300.8L356.6,300.8v6.3h78.8v-6.3
								c0-3.6-0.3-7-0.9-10.1c-0.6-3.1-1.4-6-2.3-8.7l0,0l-13.9-33c-1.5-3.5-3-6.4-4.6-8.8c-1.6-2.3-4.3-3.5-8.1-3.5l0,0h-19.8
								c-4,0-6.9,1.2-8.5,3.5c-1.6,2.4-3.1,5.2-4.4,8.6l0,0l-12.9,33.2c-0.9,2.7-1.7,5.6-2.3,8.7
								C356.9,293.7,356.6,297.1,356.6,300.8z M379.4,289.6l9.5-30.7c0.5-1.2,1.1-2.1,1.7-2.6c0.6-0.5,1.3-0.8,2.1-0.8l0,0h5.1
								c0.8,0,1.5,0.3,2.1,0.8c0.6,0.5,1.2,1.4,1.7,2.6l0,0l9.5,30.7H379.4z M437.4,343.8h-2V309h-78.8v34.8h-2v-43.1
								c0-3.8,0.3-7.3,0.9-10.4c0.6-3.2,1.5-6.2,2.5-9.2l0,0l12.9-33.2c1.5-3.8,3.2-6.9,5.1-9.5c1.9-2.6,5.1-3.8,9.7-3.8l0,0h19.8
								c4.4,0,7.6,1.3,9.4,3.8c1.8,2.6,3.6,5.8,5.2,9.7l0,0l13.9,33c1.1,3,1.9,6,2.5,9.2c0.6,3.2,0.9,6.7,0.9,10.4l0,0V343.8z
								 M377.4,354.7L377.4,354.7v-28.3h35.8v28.3c0,2.6,0.6,4.4,1.9,5.5c1.3,1.2,3.3,1.7,6,1.7l0,0h30.5c2.6,0,4.4-0.6,5.5-1.7
								c1.2-1.1,1.7-3,1.7-5.5l0,0v-53.4c0-4-0.6-8.7-1.9-13.9c-1.3-5.3-3.2-11.4-5.9-18.4l0,0l-17.6-45.9c-0.8-2.3-2.1-4-3.8-5.1
								c-1.7-1.1-3.8-1.6-6.3-1.6l0,0h-54.4c-2.7,0-4.9,0.5-6.6,1.6c-1.7,1.1-2.9,2.8-3.7,5.1l0,0L341,269c-2.7,7-4.7,13.1-6,18.4
								c-1.3,5.3-1.9,9.9-1.9,13.9l0,0v53.4c0,2.6,0.6,4.4,1.7,5.5c1.2,1.2,3,1.7,5.6,1.7l0,0h29.7c2.6,0,4.4-0.6,5.5-1.7
								C376.8,359.1,377.4,357.3,377.4,354.7z M376.6,362.2L350.3,384c-0.5,0.5-1.4,1-2.5,1.4c-1.1,0.4-2.4,0.6-3.7,0.6l0,0h-29.7
								c-3.2,0-5.6-0.7-7.1-2.2c-1.5-1.5-2.2-3.8-2.2-7.1l0,0v-53.4c0-4.2,0.6-8.9,1.9-14.3c1.3-5.3,3.4-11.6,6.2-18.9l0,0
								l17.4-45.7c0.4-1.2,0.9-2.3,1.5-3.2c0.6-0.9,1.3-1.6,1.9-2.3l0,0l0.2-0.2l25.9-21.6c1.1-0.9,2.4-1.7,3.8-2.1
								c1.5-0.5,3.2-0.7,5.1-0.7l0,0h54.4c3.1,0,5.6,0.6,7.6,1.9c2,1.3,3.4,3.2,4.4,5.9l0,0l17.6,45.9c2.8,7.3,4.9,13.6,6.1,18.9
								c1.3,5.3,1.9,10.1,1.9,14.3l0,0v53.4c0,1.8-0.2,3.2-0.7,4.4c-0.5,1.2-1.2,2.2-2.1,3l0,0L431.8,384c-0.5,0.5-1.4,1-2.5,1.4
								c-1.1,0.4-2.4,0.6-3.7,0.6l0,0H395c-3.4,0-5.9-0.8-7.5-2.3c-1.6-1.6-2.4-3.9-2.4-7l0,0v-26.3h-5.7v4.2c0,1.8-0.2,3.2-0.7,4.4
								C378.2,360.4,377.5,361.4,376.6,362.2L376.6,362.2z M545.4,386.1h-63.9c-3.2,0-5.6-0.7-7.1-2.2c-1.5-1.5-2.2-3.8-2.2-7.1l0,0
								v-23.7c0-1.8,0.2-3.2,0.7-4.4c0.5-1.2,1.2-2.2,2.1-3l0,0l20.2-17c-7.1-2.2-12.8-5.8-16.9-11c-4.1-5.2-6.2-12.6-6.2-22.3l0,0
								v-21.2c0-6.1,1-11.5,3-16.2c2-4.7,4.9-8.7,8.7-11.9l0,0l26.3-22c3.6-3,8.2-5.3,13.5-7c5.4-1.7,11.5-2.5,18.4-2.5l0,0h56.6
								c3.2,0,5.6,0.7,7.1,2.2c1.5,1.5,2.2,3.8,2.2,7.1l0,0v24.1c0,1.8-0.2,3.2-0.7,4.4c-0.5,1.2-1.2,2.2-2.1,3l0,0L587,270.4
								c8.5,1.9,15.3,5.4,20.5,10.6c5.2,5.2,7.8,13.3,7.8,24.2l0,0v21.2c0,6.1-1,11.5-3,16.2c-2,4.7-5,8.7-8.9,11.9l0,0l-26.1,21.8
								c-3.8,3.1-8.4,5.5-13.7,7.2C558.2,385.2,552.1,386.1,545.4,386.1L545.4,386.1z M507.6,362h63.9c12.9,0,23.2-3.1,30.6-9.2
								c7.5-6.1,11.2-14.9,11.2-26.4l0,0v-21.2c0-11.3-2.9-19.4-8.7-24.3s-13.4-8-22.8-9.3l0,0l-30.1-4c-1.8-0.1-3.1-0.8-4-2
								c-0.9-1.2-1.4-2.7-1.4-4.4l0,0c0-1.8,0.5-3.2,1.4-4.4c0.9-1.1,2.3-1.7,4-1.7l0,0h47.1c2.6,0,4.4-0.6,5.6-1.7
								c1.1-1.1,1.7-3,1.7-5.5l0,0v-24.1c0-2.6-0.6-4.4-1.7-5.6c-1.2-1.1-3-1.7-5.6-1.7l0,0h-56.6c-13.1,0-23.3,3.1-30.7,9.2
								c-7.4,6.1-11.1,14.9-11.1,26.4l0,0v21.2c0,11.3,2.9,19.4,8.6,24.3c5.7,4.9,13.3,8,22.7,9.3l0,0l30.3,4.2
								c1.8,0.1,3.1,0.7,4,1.8c0.9,1.1,1.3,2.8,1.3,5.1l0,0c0,1.6-0.4,3-1.3,4.1c-0.9,1.2-2.2,1.7-4,1.7l0,0h-54.4
								c-2.6,0-4.4,0.6-5.5,1.7c-1.2,1.2-1.7,3-1.7,5.6l0,0v23.7c0,2.6,0.6,4.4,1.7,5.5C503.2,361.4,505,362,507.6,362L507.6,362z
								 M542.9,234.6h44.9v2h-44.9c-5.7,0-10.2,1.5-13.5,4.6c-3.4,3.1-5.1,7-5.1,11.7l0,0v16.6c0,4.7,0.9,8,2.8,9.9s4.4,3.1,7.5,3.6
								l0,0l42.7,8.7c4,0.8,7.4,2.6,10,5.3c2.6,2.7,3.9,7.5,3.9,14.6l0,0v11.7c0,5.9-2,10.8-6.1,14.6c-4,3.9-9.5,5.8-16.4,5.8l0,0
								h-50.3v-2h50.3c6.2,0,11.2-1.7,14.9-5.2c3.7-3.4,5.5-7.8,5.5-13.2l0,0v-11.7c0-6.3-1.1-10.7-3.3-13.1c-2.2-2.3-5.2-3.9-9-4.7
								l0,0l-42.7-8.7c-3.5-0.7-6.4-2.1-8.6-4.2c-2.2-2.1-3.4-5.9-3.4-11.4l0,0V253c0-5.4,1.9-9.8,5.7-13.3
								C531.8,236.4,536.7,234.6,542.9,234.6L542.9,234.6z M679.4,343.8h-2V234.6h2v53.6H757v-53.6h2v109.2h-2v-53.6h-77.6V343.8z
								 M662.8,362h31.3c2.6,0,4.4-0.6,5.6-1.7c1.1-1.1,1.7-3,1.7-5.5l0,0v-44.9h33.8v44.9c0,2.6,0.6,4.4,1.7,5.5
								c1.1,1.2,3,1.7,5.5,1.7l0,0h31.3c2.6,0,4.4-0.6,5.6-1.7c1.1-1.1,1.7-3,1.7-5.5l0,0v-131c0-2.6-0.6-4.4-1.7-5.6
								c-1.2-1.1-3-1.7-5.6-1.7l0,0h-31.3c-2.6,0-4.4,0.6-5.5,1.7c-1.2,1.2-1.7,3-1.7,5.6l0,0v43.9h-33.8v-43.9
								c0-2.6-0.6-4.4-1.7-5.6c-1.2-1.1-3-1.7-5.6-1.7l0,0h-31.3c-2.6,0-4.4,0.6-5.5,1.7c-1.2,1.2-1.7,3-1.7,5.6l0,0v131
								c0,2.6,0.6,4.4,1.7,5.5C658.4,361.4,660.3,362,662.8,362L662.8,362z M700.6,362.2L700.6,362.2L674.4,384
								c-0.5,0.5-1.4,1-2.5,1.4c-1.2,0.4-2.4,0.6-3.8,0.6l0,0h-31.3c-3.2,0-5.6-0.7-7.1-2.2c-1.5-1.5-2.2-3.8-2.2-7.1l0,0v-131
								c0-1.8,0.2-3.2,0.7-4.4c0.5-1.2,1.2-2.2,2.1-3l0,0l26.1-22c0.7-0.5,1.6-1,2.7-1.3c1.1-0.3,2.4-0.5,3.7-0.5l0,0h31.3
								c3.2,0,5.6,0.7,7.1,2.2c1.5,1.5,2.2,3.8,2.2,7.1l0,0v41.8h3.6v-19.8c0-1.8,0.2-3.2,0.7-4.4c0.5-1.2,1.2-2.2,2.1-3l0,0
								l26.1-22c0.7-0.5,1.6-1,2.7-1.3c1.1-0.3,2.4-0.5,3.7-0.5l0,0h31.3c3.2,0,5.6,0.7,7.1,2.2c1.5,1.5,2.2,3.8,2.2,7.1l0,0v131
								c0,1.8-0.2,3.2-0.7,4.4c-0.5,1.2-1.2,2.2-2.1,3l0,0L754,384c-0.5,0.5-1.4,1-2.5,1.4c-1.2,0.4-2.4,0.6-3.8,0.6l0,0h-31.3
								c-3.2,0-5.6-0.7-7.1-2.2c-1.5-1.5-2.2-3.8-2.2-7.1l0,0v-42.9h-3.6v20.8c0,1.8-0.2,3.2-0.7,4.4
								C702.3,360.4,701.6,361.4,700.6,362.2z M876.9,386.1L876.9,386.1h-32.8c-3.4,0-5.8-0.7-7.2-2.2c-1.4-1.5-2.1-3.8-2.1-7.1l0,0
								v-25.3l-30.5-40.8c-3.2-4.3-5.4-8.1-6.5-11.3c-1.1-3.2-1.6-8.2-1.6-14.8l0,0v-38.8c0-1.8,0.2-3.2,0.7-4.4
								c0.5-1.2,1.2-2.2,2.1-3l0,0l26.1-22c0.7-0.5,1.6-1,2.7-1.3c1.2-0.3,2.4-0.5,3.8-0.5l0,0h31.1c3.2,0,5.6,0.7,7.1,2.2
								s2.2,3.8,2.2,7.1l0,0v33.2c0,1.2,0.1,2.4,0.2,3.6c0.1,1.2,0.5,2.5,1.2,3.8l0,0l2.4,3.4v-22c0-1.8,0.2-3.2,0.7-4.4
								c0.5-1.2,1.2-2.2,2.1-3l0,0l26.1-22c0.7-0.5,1.6-1,2.7-1.3c1.2-0.3,2.4-0.5,3.8-0.5l0,0h30.1c3.2,0,5.6,0.7,7.1,2.2
								c1.5,1.5,2.2,3.8,2.2,7.1l0,0v38.8c0,6.6-0.5,11.5-1.6,14.8c-1.1,3.2-3.2,7-6.5,11.3l0,0l-30.3,41v25.1
								c0,1.8-0.2,3.2-0.7,4.4c-0.5,1.2-1.2,2.2-2.1,3l0,0L883.2,384c-0.5,0.5-1.4,1-2.5,1.4C879.5,385.9,878.3,386.1,876.9,386.1z
								 M870.3,362H903c2.6,0,4.4-0.6,5.5-1.7c1.2-1.1,1.7-3,1.7-5.5l0,0v-25.7l30.7-41.6c3-4.2,5-7.8,6.1-10.9
								c1.1-3.1,1.6-7.7,1.6-13.9l0,0v-38.8c0-2.6-0.6-4.4-1.7-5.6c-1.1-1.1-3-1.7-5.5-1.7l0,0h-30.1c-2.6,0-4.4,0.6-5.6,1.7
								c-1.1,1.2-1.7,3-1.7,5.6l0,0v33.2c0,1.3-0.1,2.8-0.2,4.2c-0.1,1.5-0.7,2.9-1.6,4.2l0,0l-9.3,14.6c-0.7,1.2-1.4,2.1-2.1,2.6
								c-0.7,0.5-1.6,0.8-2.7,0.8l0,0h-2c-1.1,0-2-0.3-2.7-0.8c-0.7-0.5-1.4-1.4-2.1-2.6l0,0l-9.3-14.6c-0.9-1.3-1.5-2.8-1.6-4.2
								c-0.1-1.5-0.2-2.9-0.2-4.2l0,0v-33.2c0-2.6-0.6-4.4-1.7-5.6c-1.1-1.1-3-1.7-5.5-1.7l0,0h-31.1c-2.6,0-4.4,0.6-5.6,1.7
								c-1.1,1.2-1.7,3-1.7,5.6l0,0v38.8c0,6.2,0.5,10.8,1.5,13.9c1,3.1,3.1,6.7,6.2,10.9l0,0l30.9,41.4v25.9c0,2.6,0.6,4.4,1.7,5.5
								C865.8,361.4,867.7,362,870.3,362L870.3,362z M889.1,309.2L889.1,309.2h-1.4v34.6h-2v-34.6h-2c-3,0-5.6-0.7-8-2
								c-2.3-1.3-4.6-3.5-6.8-6.5l0,0l-19.6-27.3c-1.5-2-2.4-4.4-2.6-7.1s-0.4-5.5-0.4-8.5l0,0v-23.2h2v23.2c0,2.8,0.1,5.5,0.4,8
								c0.3,2.5,1.1,4.8,2.4,6.8l0,0l19.6,27.3c1.8,2.7,3.8,4.6,6.1,5.7c2.3,1.1,4.6,1.6,6.9,1.6l0,0h5.5c2.6,0,4.9-0.6,7-1.7
								c2.1-1.1,4.2-3,6.2-5.5l0,0l20.2-27.3c1.3-1.8,2.2-3.9,2.4-6.6c0.3-2.6,0.4-5.3,0.4-8.2l0,0v-23.2h2v23.2
								c0,3-0.1,5.8-0.3,8.4c-0.2,2.6-1.1,5-2.7,7.2l0,0L904,300.8c-2.2,3-4.4,5.1-6.8,6.5C894.9,308.6,892.2,309.2,889.1,309.2z
								 M1126.4,386.1L1126.4,386.1H1077c-17.7,0-30.7-4.6-39.1-13.7c-8.4-9.2-12.7-21-12.7-35.6l0,0v-56.8c0-7.4,1.1-13.9,3.2-19.3
								c2.2-5.4,5.3-10,9.5-13.6l0,0l26.3-22c4.2-3.5,9.5-6.1,16-7.9c6.5-1.8,14.1-2.6,22.8-2.6l0,0h49.3c3.2,0,5.6,0.7,7.1,2.2
								c1.5,1.5,2.2,3.8,2.2,7.1l0,0v24.5c0,1.8-0.2,3.2-0.7,4.4c-0.5,1.2-1.2,2.2-2.1,3l0,0l-26.3,21.8c-0.5,0.5-1.4,1-2.5,1.4
								c-1.2,0.4-2.4,0.6-3.8,0.6l0,0h-24.9v34.2c0,2.8,0.9,4.8,2.6,5.9c1.8,1.2,4.3,1.7,7.7,1.7l0,0h40.6c3.2,0,5.6,0.7,7.1,2.2
								c1.5,1.5,2.2,3.8,2.2,7.1l0,0v24.1c0,1.8-0.2,3.2-0.7,4.4c-0.5,1.2-1.2,2.2-2.1,3l0,0l-26.3,21.8c-0.5,0.5-1.4,1-2.5,1.4
								C1129,385.9,1127.7,386.1,1126.4,386.1z M1103.1,362h49.3c2.6,0,4.4-0.6,5.6-1.7c1.1-1.1,1.7-3,1.7-5.5l0,0v-24.1
								c0-2.6-0.6-4.4-1.7-5.6c-1.2-1.1-3-1.7-5.6-1.7l0,0h-40.6c-4.2,0-7.3-0.8-9.3-2.3c-2-1.5-3-4-3-7.4l0,0v-48.1
								c0-3.4,1-5.9,3-7.6c2-1.7,5.1-2.5,9.3-2.5l0,0h40.6c2.6,0,4.4-0.6,5.6-1.7c1.1-1.1,1.7-3,1.7-5.5l0,0v-24.5
								c0-2.6-0.6-4.4-1.7-5.6c-1.2-1.1-3-1.7-5.6-1.7l0,0h-49.3c-16.8,0-29.3,3.4-37.5,10.2c-8.2,6.8-12.3,17.2-12.3,31.3l0,0v62.9
								c0,14,4.1,24.4,12.3,31.1C1073.8,358.6,1086.3,362,1103.1,362L1103.1,362z M1107.6,341.8h33.8v2h-33.8c-13.1,0-21.7-2-26-6.1
								c-4.3-4-6.4-10.7-6.4-20l0,0v-56.6c0-9.6,2.2-16.4,6.5-20.4c4.3-4,12.9-6.1,25.9-6.1l0,0h33.8v2h-33.8
								c-11.9,0-19.9,1.8-24.1,5.5c-4.2,3.7-6.3,10-6.3,18.9l0,0v56.6c0,8.8,2,15,6.1,18.6C1087.3,340,1095.4,341.8,1107.6,341.8
								L1107.6,341.8z M1315,354.5l-26.1,21.8c-4.7,4-11.3,7.2-19.8,9.4c-8.5,2.2-19.4,3.3-32.8,3.3l0,0c-13.2,0-24-1.4-32.4-4.1
								c-8.4-2.8-15-6.5-19.8-11c-4.8-4.6-8.1-9.8-9.9-15.8c-1.8-5.9-2.7-12.1-2.7-18.4l0,0v-62.9c0-6.2,0.9-12,2.6-17.3
								c1.8-5.3,4.9-9.9,9.5-13.6l0,0l26.3-21.8c4.7-4,11.3-7.2,19.7-9.4c8.4-2.2,19.4-3.3,32.8-3.3l0,0c13.2,0,24,1.1,32.5,3.2
								c8.4,2.2,15,5.1,19.8,9c4.8,3.9,8,8.4,9.8,13.7c1.8,5.3,2.6,11.2,2.6,17.5l0,0v68.9c0,6.2-0.9,11.9-2.6,17.2
								C1322.7,346.2,1319.6,350.8,1315,354.5L1315,354.5z M1325.1,323.8L1325.1,323.8v-68.9c0-6.2-0.9-11.8-2.7-16.9
								c-1.8-5-5-9.4-9.7-13c-4.7-3.6-11.1-6.5-19.2-8.5c-8.2-2-18.5-3-31.1-3l0,0c-12.5,0-22.9,1-31.1,3s-14.7,4.9-19.3,8.5
								c-4.7,3.6-7.9,8-9.7,13c-1.8,5.1-2.7,10.7-2.7,16.9l0,0v68.9c0,6.2,0.9,11.8,2.7,16.9c1.8,5.1,5,9.4,9.7,12.9
								c4.6,3.6,11.1,6.4,19.3,8.4c8.2,2,18.6,3,31.1,3l0,0c12.5,0,22.9-1,31.1-3c8.1-2,14.5-4.8,19.2-8.4c4.6-3.6,7.9-7.9,9.7-12.9
								C1324.2,335.6,1325.1,330,1325.1,323.8z M1303.1,259.5v59.6c0,8.1-2.9,14.7-8.7,19.7c-5.8,5.1-16.6,7.6-32.3,7.6l0,0
								c-15.8,0-26.5-2.5-32.1-7.6c-5.7-5-8.5-11.6-8.5-19.7l0,0v-59.6c0-8.1,2.8-14.7,8.5-19.7c5.7-5,16.4-7.6,32.1-7.6l0,0
								c15.8,0,26.6,2.5,32.3,7.6C1300.2,244.8,1303.1,251.4,1303.1,259.5L1303.1,259.5z M1223.4,259.5v59.6
								c0,7.5,2.7,13.6,8.1,18.3c5.4,4.7,15.6,7,30.5,7l0,0c15,0,25.2-2.3,30.7-7c5.5-4.6,8.3-10.7,8.3-18.3l0,0v-59.6
								c0-7.5-2.8-13.7-8.3-18.3c-5.5-4.6-15.8-7-30.7-7l0,0c-15,0-25.1,2.3-30.5,7C1226.1,245.9,1223.4,252,1223.4,259.5
								L1223.4,259.5z M1245.4,316.5L1245.4,316.5v-54.4c0-2.6,1-4.8,3-6.6c2-1.8,6.7-2.7,13.9-2.7l0,0c7.3,0,11.9,0.9,13.9,2.7
								c2,1.8,3,4,3,6.6l0,0v54.4c0,2.7-1,4.9-3,6.8c-2,1.8-6.7,2.7-13.9,2.7l0,0c-7.3,0-11.9-0.9-13.9-2.7
								C1246.5,321.5,1245.4,319.2,1245.4,316.5z M1247.5,278.3v38.2c0,1.3,0.3,2.5,0.8,3.5c0.5,1,1.6,1.9,3,2.5l0,0v-38.4
								c0-1.3-0.3-2.5-0.8-3.6C1250,279.6,1248.9,278.8,1247.5,278.3L1247.5,278.3z M1397.7,236.3L1397.7,236.3l74.4,83.7v-85.3h2
								v109.2h-2V323l-76.4-85.7c-0.1-0.1-0.3-0.3-0.5-0.4c-0.2-0.1-0.4-0.2-0.5-0.2l0,0c-0.1,0-0.2,0.1-0.3,0.2
								c-0.1,0.1-0.1,0.3-0.1,0.4l0,0v106.5h-2V236.9c0-0.8,0.3-1.4,0.8-1.8c0.5-0.4,1.1-0.6,1.6-0.6l0,0c0.5,0,1,0.1,1.4,0.4
								C1396.5,235.1,1397,235.6,1397.7,236.3z M1378.3,362h30.3c2.6,0,4.4-0.6,5.5-1.7c1.2-1.1,1.7-3,1.7-5.5l0,0V288l34.6,41.8
								v24.9c0,2.6,0.6,4.4,1.7,5.5c1.2,1.2,3,1.7,5.6,1.7l0,0h30.3c2.6,0,4.4-0.6,5.5-1.7c1.2-1.1,1.7-3,1.7-5.5l0,0v-131
								c0-2.6-0.6-4.4-1.7-5.6c-1.1-1.1-3-1.7-5.5-1.7l0,0h-30.3c-2.6,0-4.4,0.6-5.6,1.7c-1.1,1.2-1.7,3-1.7,5.6l0,0v43.1
								l-39.2-44.9c-1.8-2-3.5-3.4-5.4-4.2c-1.8-0.8-4-1.2-6.6-1.2l0,0h-21c-2.6,0-4.4,0.6-5.6,1.7c-1.1,1.2-1.7,3-1.7,5.6l0,0v131
								c0,2.6,0.6,4.4,1.7,5.5C1373.8,361.4,1375.7,362,1378.3,362L1378.3,362z M1415.1,362.2L1415.1,362.2l-26.3,21.8
								c-0.5,0.5-1.4,1-2.5,1.4c-1.1,0.4-2.4,0.6-3.7,0.6l0,0h-30.3c-3.2,0-5.6-0.7-7.1-2.2c-1.5-1.5-2.2-3.8-2.2-7.1l0,0v-131
								c0-1.8,0.2-3.2,0.7-4.4c0.5-1.2,1.2-2.2,2.1-3l0,0l26.1-22c0.7-0.5,1.6-1,2.7-1.3c1.2-0.3,2.4-0.5,3.8-0.5l0,0h21
								c3,0,5.5,0.5,7.5,1.4s4,2.5,6.1,4.6l0,0l13.9,16.2l24.5-20.4c0.7-0.5,1.6-1,2.7-1.3c1.2-0.3,2.4-0.5,3.8-0.5l0,0h30.3
								c3.2,0,5.6,0.7,7.1,2.2s2.2,3.8,2.2,7.1l0,0v131c0,1.8-0.2,3.2-0.7,4.4c-0.5,1.2-1.2,2.2-2.1,3l0,0l-26.3,21.8
								c-0.5,0.5-1.4,1-2.5,1.4c-1.1,0.4-2.4,0.6-3.7,0.6l0,0h-30.3c-3.2,0-5.6-0.7-7.1-2.2c-1.5-1.5-2.2-3.8-2.2-7.1l0,0v-24.1
								l-4.4-5.5v7.5c0,1.8-0.2,3.2-0.7,4.4C1416.7,360.4,1416,361.4,1415.1,362.2z"/>
						</g>
					</g>
				</g>
			</g>
			<g transform="matrix(1,0,0,1,165.27832108166578,0)">
				<g id="icon-0">
					<g>
						<path class="st0" d="M513.9,264.7c-40.7,0-73.7-33-73.7-73.7V92.8c0-40.7,33-73.7,73.7-73.7h98.2c40.7,0,73.7,33,73.7,73.7
							V191c0,40.7-33,73.7-73.7,73.7H513.9z"/>
						<path class="st1" d="M535.4,245.5c-40.7,0-73.7-33-73.7-73.7V73.6c0-40.7,33-73.7,73.7-73.7h98.2c40.7,0,73.7,33,73.7,73.7
							v98.2c0,40.7-33,73.7-73.7,73.7H535.4z"/>
					</g>
					<g transform="matrix(1,0,0,1,12.992671567333705,12.992671567333698)">
						<g>
							<path class="st0" d="M640.6,124.7h-9.2v-4.6c1.3,0,2.3-1,2.3-2.3s-1-2.3-2.3-2.3h-3.5v-4.6h3.5c1.3,0,2.3-1,2.3-2.3
								s-1-2.3-2.3-2.3v-4.6c1.3,0,2.3-1,2.3-2.3s-1-2.3-2.3-2.3h-21.9c-3.8,0-6.9,3.1-6.9,6.9c0,1,0.2,2,0.6,2.9
								c-3.5,1.5-5.1,5.6-3.5,9.1c0.7,1.6,1.9,2.8,3.5,3.5c-0.8,1.6-0.9,3.5-0.2,5.2h-8.6c-0.4-2.2-0.9-4.5-1-5.1
								c0-0.9-0.5-1.7-1.4-2.1c-3.8-1.7-13.7-6-20.9-0.2c-6.9-5.6-15.7-1.7-20,0.2l-0.1,0.1c-0.7,0.3-1.2,0.9-1.3,1.7l-1,5.5h-9.4
								v-10.4c0-2.2-1.5-4-3.7-4.5l7.7-9c0.8-1,0.7-2.4-0.3-3.2c-1-0.8-2.4-0.7-3.2,0.3l0,0l-9.8,11.4V97c0-1.3-1-2.3-2.3-2.3
								s-2.3,1-2.3,2.3v12.7h-2.3c-2.5,0-4.6,2.1-4.6,4.6v10.4h-16.1c-2.5,0-4.6,2.1-4.6,4.6v4.6c0,2.5,2.1,4.6,4.6,4.6h10.4v40.3
								c0,2.5,2.1,4.6,4.6,4.6h4.6c2.5,0,4.6-2.1,4.6-4.6v-40.3h89.8v40.3c0,2.5,2.1,4.6,4.6,4.6h4.6c2.5,0,4.6-2.1,4.6-4.6v-40.3
								h10.4c2.5,0,4.6-2.1,4.6-4.6v-4.6C645.2,126.7,643.1,124.7,640.6,124.7z M609.5,101.7h17.3v4.6h-17.3c-1.3,0-2.3-1-2.3-2.3
								S608.2,101.7,609.5,101.7z M606,110.9h17.3v4.6H606c-1.3,0-2.3-1-2.3-2.3C603.7,111.9,604.8,110.9,606,110.9z M626.7,120.1
								v4.6h-17.3c-1.3,0-2.3-1-2.3-2.3s1-2.3,2.3-2.3H626.7z M554,121.2c5.1-2.1,10.7-3.8,14.7,0c0.2,0.2,0.4,0.3,0.5,0.5
								c0.4,0.5,1.1,0.7,1.7,0.7h0.4c0.6,0,1.3-0.3,1.7-0.7c0.2-0.2,0.4-0.4,0.5-0.5c4.1-3.8,10.2-2.2,15.4,0c0.1,0.8,0.4,2,0.7,3.5
								h-36.3L554,121.2z M523.1,114.3h11.5v10.4h-11.5V114.3z M522,178.8h-4.6v-40.3h4.6V178.8z M625.6,178.8H621v-40.3h4.6V178.8z
								 M640.6,133.9H502.4v-4.6h138.1V133.9z"/>
							<path class="st0" d="M597.9,59.8l-27.6-6.9c-0.7-0.2-1.5-0.2-2.2,0l-27.6,6.9c-2.5,0.6-4,3.1-3.4,5.6
								c0.4,1.7,1.7,2.9,3.4,3.4l6.9,1.7v12.9c0,2.2,1.5,4,3.6,4.5c0.8,0.2,1.6,0.4,2.5,0.6c5.1,1.4,10.4,2.2,15.8,2.3
								c5.3-0.1,10.6-0.9,15.8-2.3c0.9-0.2,1.7-0.4,2.5-0.6c2.1-0.5,3.6-2.3,3.6-4.5V70.4l5.8-1.4v5.6c-1.3,0-2.3,1-2.3,2.3
								s1,2.3,2.3,2.3h4.6c1.3,0,2.3-1,2.3-2.3s-1-2.3-2.3-2.3V64.2C601.4,62.1,600,60.3,597.9,59.8z M586.5,83.3
								c-4.6,1-10.7,2.8-17.3,2.8s-12.6-1.8-17.3-2.8V71.6l16.2,4c0.7,0.2,1.5,0.2,2.2,0l16.2-4V83.3z M569.2,71.1l-27.6-6.9
								l27.6-6.9l27.6,6.9L569.2,71.1z"/>
							<path class="st0" d="M547.5,102.8c-0.2,0.3-0.4,0.7-0.7,1l-3.1,3.6h52.4c0.5-0.9,1.2-1.8,1.9-2.5c0-0.3-0.1-0.6-0.1-1
								c0-0.4,0-0.8,0.1-1.2H547.5z"/>
							<path class="st0" d="M640.6,36H502.4c-2.5,0-4.6,2.1-4.6,4.6v62.2c0,2.5,2.1,4.6,4.6,4.6h18.4v-4.6h-18.4V40.6h138.1v62.2
								h-3.2c-0.2,0.4-0.5,0.8-0.8,1.2c0,0,0,0,0,0.1c0.2,0.3,0.5,0.6,0.6,0.9c0,0,0.1,0.1,0.1,0.1c0.2,0.3,0.4,0.6,0.5,1
								c0,0,0,0.1,0.1,0.1c0.1,0.4,0.2,0.7,0.3,1.1c0,0,0,0.1,0,0.1c0,0,0,0,0,0.1h2.4c2.5,0,4.6-2.1,4.6-4.6V40.6
								C645.2,38.1,643.1,36,640.6,36z"/>
						</g>
					</g>
				</g>
			</g>
		</g>
		<rect x="2.1" y="-0.1" class="st2" width="1495.3" height="465.3"/>
	</g>
</g>
</svg>
