<svg xmlns="http://www.w3.org/2000/svg" version="1.1" xmlns:xlink="http://www.w3.org/1999/xlink" xmlns:svgjs="http://svgjs.dev/svgjs" width="1500" height="1500" viewBox="0 0 1500 1500"><rect width="1500" height="1500" fill="#000000"></rect><g transform="matrix(0.6666666666666666,0,0,0.6666666666666666,249.39393939393938,595.0848084247939)"><svg viewBox="0 0 396 123" data-background-color="#ffffff" preserveAspectRatio="xMidYMid meet" height="465" width="1500" xmlns="http://www.w3.org/2000/svg" xmlns:xlink="http://www.w3.org/1999/xlink"><g id="tight-bounds" transform="matrix(1,0,0,1,0.2400000000000091,-0.03364979435369264)"><svg viewBox="0 0 395.52 123.06729958870741" height="123.06729958870741" width="395.52"><g><svg viewBox="0 0 395.52000000000004 123.06729958870743" height="123.06729958870741" width="395.52"><g transform="matrix(1,0,0,1,0,76.06052836101678)"><svg viewBox="0 0 395.52000000000004 47.00677122769065" height="47.00677122769065" width="395.52000000000004"><g id="textblocktransform"><svg viewBox="0 0 395.52000000000004 47.00677122769065" height="47.00677122769065" width="395.52000000000004" id="textblock"><g><svg viewBox="0 0 395.52000000000004 47.00677122769065" height="47.00677122769065" width="395.52000000000004"><g transform="matrix(1,0,0,1,0,0)"><svg width="395.52000000000004" viewBox="2.25 -37.25 369.78 43.95" height="47.00677122769065" data-palette-color="#2d2d55"><path d="M12.3 5.95L12.3 5.95 4.55 5.95Q3.35 5.95 2.8 5.4 2.25 4.85 2.25 3.65L2.25 3.65 2.25-28.75Q2.25-29.4 2.43-29.85 2.6-30.3 2.95-30.6L2.95-30.6 9.4-36.05Q9.65-36.25 10.08-36.38 10.5-36.5 11-36.5L11-36.5 33.3-36.5Q34.5-36.5 35.05-35.95 35.6-35.4 35.6-34.2L35.6-34.2 35.6-28.25Q35.6-27.6 35.43-27.15 35.25-26.7 34.9-26.4L34.9-26.4 29.3-21.75Q30.45-21.75 31-21.2 31.55-20.65 31.55-19.45L31.55-19.45 31.55-13.45Q31.55-12.8 31.38-12.35 31.2-11.9 30.85-11.6L30.85-11.6 24.35-6.2Q24.15-6 23.73-5.85 23.3-5.7 22.8-5.7L22.8-5.7 21.05-5.7 21.05-1.8Q21.05-1.15 20.88-0.7 20.7-0.25 20.35 0.05L20.35 0.05 13.85 5.45Q13.65 5.65 13.23 5.8 12.8 5.95 12.3 5.95ZM11 0L18.75 0Q19.7 0 20.13-0.43 20.55-0.85 20.55-1.8L20.55-1.8 20.55-11.65 29.25-11.65Q30.2-11.65 30.63-12.08 31.05-12.5 31.05-13.45L31.05-13.45 31.05-19.45Q31.05-20.4 30.63-20.83 30.2-21.25 29.25-21.25L29.25-21.25 20.55-21.25 20.55-26.45 33.3-26.45Q34.25-26.45 34.68-26.88 35.1-27.3 35.1-28.25L35.1-28.25 35.1-34.2Q35.1-35.15 34.68-35.58 34.25-36 33.3-36L33.3-36 11-36Q10.05-36 9.63-35.58 9.2-35.15 9.2-34.2L9.2-34.2 9.2-1.8Q9.2-0.85 9.63-0.43 10.05 0 11 0L11 0ZM15.15-4.5L14.65-4.5 14.65-31.5 30.6-31.5 30.6-31 15.15-31 15.15-16.7 26.55-16.7 26.55-16.2 15.15-16.2 15.15-4.5ZM65.9 5.95L65.9 5.95 40.45 5.95Q39.25 5.95 38.7 5.4 38.15 4.85 38.15 3.65L38.15 3.65 38.15-28.75Q38.15-29.4 38.32-29.85 38.5-30.3 38.85-30.6L38.85-30.6 45.3-36.05Q45.55-36.25 45.97-36.38 46.4-36.5 46.9-36.5L46.9-36.5 54.65-36.5Q55.85-36.5 56.4-35.95 56.95-35.4 56.95-34.2L56.95-34.2 56.95-13.85 57.05-13.95 63.5-19.4Q63.75-19.6 64.17-19.73 64.6-19.85 65.1-19.85L65.1-19.85 72.35-19.85Q73.55-19.85 74.1-19.3 74.65-18.75 74.65-17.55L74.65-17.55 74.65-1.8Q74.65-1.15 74.47-0.7 74.3-0.25 73.95 0.05L73.95 0.05 67.45 5.45Q67.25 5.65 66.82 5.8 66.4 5.95 65.9 5.95ZM46.9 0L72.35 0Q73.3 0 73.72-0.43 74.15-0.85 74.15-1.8L74.15-1.8 74.15-17.55Q74.15-18.5 73.72-18.93 73.3-19.35 72.35-19.35L72.35-19.35 65.1-19.35Q64.15-19.35 63.72-18.93 63.3-18.5 63.3-17.55L63.3-17.55 63.3-9.45 56.45-9.45 56.45-34.2Q56.45-35.15 56.02-35.58 55.6-36 54.65-36L54.65-36 46.9-36Q45.95-36 45.52-35.58 45.1-35.15 45.1-34.2L45.1-34.2 45.1-1.8Q45.1-0.85 45.52-0.43 45.95 0 46.9 0L46.9 0ZM68.95-4.5L50.55-4.5 50.55-31.5 51.05-31.5 51.05-5 68.45-5 68.45-14.85 68.95-14.85 68.95-4.5ZM89.9-15.15L89.9-15.15 89.9-13.6 109.4-13.6 109.4-15.15Q109.4-16.5 109.17-17.65 108.95-18.8 108.6-19.8L108.6-19.8 105.15-27.95Q104.6-29.25 104-30.13 103.4-31 102-31L102-31 97.1-31Q95.6-31 95-30.13 94.4-29.25 93.9-28L93.9-28 90.7-19.8Q90.35-18.8 90.12-17.65 89.9-16.5 89.9-15.15ZM95.55-17.9L97.9-25.5Q98.1-25.95 98.32-26.15 98.55-26.35 98.85-26.35L98.85-26.35 100.1-26.35Q100.4-26.35 100.62-26.15 100.85-25.95 101.05-25.5L101.05-25.5 103.4-17.9 95.55-17.9ZM109.9-4.5L109.4-4.5 109.4-13.1 89.9-13.1 89.9-4.5 89.4-4.5 89.4-15.15Q89.4-16.55 89.62-17.73 89.85-18.9 90.25-20L90.25-20 93.45-28.2Q94-29.6 94.7-30.55 95.4-31.5 97.1-31.5L97.1-31.5 102-31.5Q103.65-31.5 104.32-30.55 105-29.6 105.6-28.15L105.6-28.15 109.05-20Q109.45-18.9 109.67-17.73 109.9-16.55 109.9-15.15L109.9-15.15 109.9-4.5ZM95.05-1.8L95.05-1.8 95.05-8.8 103.9-8.8 103.9-1.8Q103.9-0.85 104.37-0.43 104.85 0 105.85 0L105.85 0 113.4 0Q114.35 0 114.77-0.43 115.2-0.85 115.2-1.8L115.2-1.8 115.2-15Q115.2-16.5 114.72-18.45 114.25-20.4 113.25-23L113.25-23 108.9-34.35Q108.6-35.2 107.97-35.6 107.35-36 106.4-36L106.4-36 92.95-36Q91.95-36 91.32-35.6 90.7-35.2 90.4-34.35L90.4-34.35 86.05-23Q85.05-20.4 84.57-18.45 84.1-16.5 84.1-15L84.1-15 84.1-1.8Q84.1-0.85 84.52-0.43 84.95 0 85.9 0L85.9 0 93.25 0Q94.2 0 94.62-0.43 95.05-0.85 95.05-1.8ZM94.85 0.05L88.35 5.45Q88.15 5.65 87.72 5.8 87.3 5.95 86.8 5.95L86.8 5.95 79.45 5.95Q78.25 5.95 77.7 5.4 77.15 4.85 77.15 3.65L77.15 3.65 77.15-9.55Q77.15-11.1 77.62-13.08 78.1-15.05 79.15-17.75L79.15-17.75 83.45-29.05Q83.6-29.5 83.82-29.83 84.05-30.15 84.3-30.4L84.3-30.4 84.35-30.45 90.75-35.8Q91.15-36.15 91.7-36.33 92.25-36.5 92.95-36.5L92.95-36.5 106.4-36.5Q107.55-36.5 108.27-36.02 109-35.55 109.35-34.55L109.35-34.55 113.7-23.2Q114.75-20.5 115.22-18.53 115.7-16.55 115.7-15L115.7-15 115.7-1.8Q115.7-1.15 115.52-0.7 115.35-0.25 115 0.05L115 0.05 108.5 5.45Q108.3 5.65 107.87 5.8 107.45 5.95 106.95 5.95L106.95 5.95 99.4 5.95Q98.15 5.95 97.55 5.38 96.95 4.8 96.95 3.65L96.95 3.65 96.95-2.85 95.55-2.85 95.55-1.8Q95.55-1.15 95.37-0.7 95.2-0.25 94.85 0.05L94.85 0.05ZM136.59 5.95L120.79 5.95Q119.59 5.95 119.04 5.4 118.49 4.85 118.49 3.65L118.49 3.65 118.49-2.2Q118.49-2.85 118.67-3.3 118.84-3.75 119.19-4.05L119.19-4.05 124.19-8.25Q121.54-9.05 120.02-10.98 118.49-12.9 118.49-16.5L118.49-16.5 118.49-21.75Q118.49-24 119.24-25.75 119.99-27.5 121.39-28.7L121.39-28.7 127.89-34.15Q129.24-35.25 131.24-35.88 133.24-36.5 135.79-36.5L135.79-36.5 149.79-36.5Q150.99-36.5 151.54-35.95 152.09-35.4 152.09-34.2L152.09-34.2 152.09-28.25Q152.09-27.6 151.92-27.15 151.74-26.7 151.39-26.4L151.39-26.4 146.89-22.65Q150.04-21.95 151.97-20.03 153.89-18.1 153.89-14.05L153.89-14.05 153.89-8.8Q153.89-6.55 153.14-4.8 152.39-3.05 150.94-1.85L150.94-1.85 144.49 3.55Q143.09 4.7 141.09 5.33 139.09 5.95 136.59 5.95L136.59 5.95ZM127.24 0L143.04 0Q147.84 0 150.62-2.27 153.39-4.55 153.39-8.8L153.39-8.8 153.39-14.05Q153.39-18.25 151.24-20.05 149.09-21.85 145.59-22.35L145.59-22.35 138.14-23.35Q137.49-23.4 137.14-23.85 136.79-24.3 136.79-24.95L136.79-24.95Q136.79-25.6 137.14-26.03 137.49-26.45 138.14-26.45L138.14-26.45 149.79-26.45Q150.74-26.45 151.17-26.88 151.59-27.3 151.59-28.25L151.59-28.25 151.59-34.2Q151.59-35.15 151.17-35.58 150.74-36 149.79-36L149.79-36 135.79-36Q130.94-36 128.19-33.73 125.44-31.45 125.44-27.2L125.44-27.2 125.44-21.95Q125.44-17.75 127.57-15.95 129.69-14.15 133.19-13.65L133.19-13.65 140.69-12.6Q141.34-12.55 141.67-12.15 141.99-11.75 141.99-10.9L141.99-10.9Q141.99-10.3 141.67-9.88 141.34-9.45 140.69-9.45L140.69-9.45 127.24-9.45Q126.29-9.45 125.87-9.03 125.44-8.6 125.44-7.65L125.44-7.65 125.44-1.8Q125.44-0.85 125.87-0.43 126.29 0 127.24 0L127.24 0ZM135.99-31.5L147.09-31.5 147.09-31 135.99-31Q133.89-31 132.64-29.85 131.39-28.7 131.39-26.95L131.39-26.95 131.39-22.85Q131.39-21.1 132.09-20.4 132.79-19.7 133.94-19.5L133.94-19.5 144.49-17.35Q145.99-17.05 146.97-16.05 147.94-15.05 147.94-12.45L147.94-12.45 147.94-9.55Q147.94-7.35 146.44-5.93 144.94-4.5 142.39-4.5L142.39-4.5 129.94-4.5 129.94-5 142.39-5Q144.69-5 146.07-6.28 147.44-7.55 147.44-9.55L147.44-9.55 147.44-12.45Q147.44-14.8 146.62-15.68 145.79-16.55 144.39-16.85L144.39-16.85 133.84-19Q132.54-19.25 131.72-20.03 130.89-20.8 130.89-22.85L130.89-22.85 130.89-26.95Q130.89-28.95 132.29-30.23 133.69-31.5 135.99-31.5L135.99-31.5ZM169.74-4.5L169.24-4.5 169.24-31.5 169.74-31.5 169.74-18.25 188.94-18.25 188.94-31.5 189.44-31.5 189.44-4.5 188.94-4.5 188.94-17.75 169.74-17.75 169.74-4.5ZM165.64 0L173.39 0Q174.34 0 174.77-0.43 175.19-0.85 175.19-1.8L175.19-1.8 175.19-12.9 183.54-12.9 183.54-1.8Q183.54-0.85 183.97-0.43 184.39 0 185.34 0L185.34 0 193.09 0Q194.04 0 194.47-0.43 194.89-0.85 194.89-1.8L194.89-1.8 194.89-34.2Q194.89-35.15 194.47-35.58 194.04-36 193.09-36L193.09-36 185.34-36Q184.39-36 183.97-35.58 183.54-35.15 183.54-34.2L183.54-34.2 183.54-23.35 175.19-23.35 175.19-34.2Q175.19-35.15 174.77-35.58 174.34-36 173.39-36L173.39-36 165.64-36Q164.69-36 164.27-35.58 163.84-35.15 163.84-34.2L163.84-34.2 163.84-1.8Q163.84-0.85 164.27-0.43 164.69 0 165.64 0L165.64 0ZM174.99 0.05L174.99 0.05 168.49 5.45Q168.29 5.65 167.87 5.8 167.44 5.95 166.94 5.95L166.94 5.95 159.19 5.95Q157.99 5.95 157.44 5.4 156.89 4.85 156.89 3.65L156.89 3.65 156.89-28.75Q156.89-29.4 157.07-29.85 157.24-30.3 157.59-30.6L157.59-30.6 164.04-36.05Q164.29-36.25 164.72-36.38 165.14-36.5 165.64-36.5L165.64-36.5 173.39-36.5Q174.59-36.5 175.14-35.95 175.69-35.4 175.69-34.2L175.69-34.2 175.69-23.85 176.59-23.85 176.59-28.75Q176.59-29.4 176.77-29.85 176.94-30.3 177.29-30.6L177.29-30.6 183.74-36.05Q183.99-36.25 184.42-36.38 184.84-36.5 185.34-36.5L185.34-36.5 193.09-36.5Q194.29-36.5 194.84-35.95 195.39-35.4 195.39-34.2L195.39-34.2 195.39-1.8Q195.39-1.15 195.22-0.7 195.04-0.25 194.69 0.05L194.69 0.05 188.19 5.45Q187.99 5.65 187.57 5.8 187.14 5.95 186.64 5.95L186.64 5.95 178.89 5.95Q177.69 5.95 177.14 5.4 176.59 4.85 176.59 3.65L176.59 3.65 176.59-6.95 175.69-6.95 175.69-1.8Q175.69-1.15 175.52-0.7 175.34-0.25 174.99 0.05ZM218.59 5.95L218.59 5.95 210.49 5.95Q209.24 5.95 208.71 5.4 208.19 4.85 208.19 3.65L208.19 3.65 208.19-2.6 200.64-12.7Q199.44-14.3 199.04-15.5 198.64-16.7 198.64-19.15L198.64-19.15 198.64-28.75Q198.64-29.4 198.81-29.85 198.99-30.3 199.34-30.6L199.34-30.6 205.79-36.05Q206.04-36.25 206.46-36.38 206.89-36.5 207.39-36.5L207.39-36.5 215.09-36.5Q216.29-36.5 216.84-35.95 217.39-35.4 217.39-34.2L217.39-34.2 217.39-26Q217.39-25.55 217.44-25.1 217.49-24.65 217.74-24.15L217.74-24.15 218.34-23.3 218.34-28.75Q218.34-29.4 218.51-29.85 218.69-30.3 219.04-30.6L219.04-30.6 225.49-36.05Q225.74-36.25 226.16-36.38 226.59-36.5 227.09-36.5L227.09-36.5 234.54-36.5Q235.74-36.5 236.29-35.95 236.84-35.4 236.84-34.2L236.84-34.2 236.84-24.6Q236.84-22.15 236.44-20.95 236.04-19.75 234.84-18.15L234.84-18.15 227.34-8 227.34-1.8Q227.34-1.15 227.16-0.7 226.99-0.25 226.64 0.05L226.64 0.05 220.14 5.45Q219.94 5.65 219.51 5.8 219.09 5.95 218.59 5.95ZM216.94 0L225.04 0Q225.99 0 226.41-0.43 226.84-0.85 226.84-1.8L226.84-1.8 226.84-8.15 234.44-18.45Q235.54-20 235.94-21.15 236.34-22.3 236.34-24.6L236.34-24.6 236.34-34.2Q236.34-35.15 235.91-35.58 235.49-36 234.54-36L234.54-36 227.09-36Q226.14-36 225.71-35.58 225.29-35.15 225.29-34.2L225.29-34.2 225.29-26Q225.29-25.5 225.24-24.95 225.19-24.4 224.84-23.9L224.84-23.9 222.54-20.3Q222.29-19.85 222.01-19.65 221.74-19.45 221.34-19.45L221.34-19.45 220.84-19.45Q220.44-19.45 220.16-19.65 219.89-19.85 219.64-20.3L219.64-20.3 217.34-23.9Q216.99-24.4 216.94-24.95 216.89-25.5 216.89-26L216.89-26 216.89-34.2Q216.89-35.15 216.46-35.58 216.04-36 215.09-36L215.09-36 207.39-36Q206.44-36 206.01-35.58 205.59-35.15 205.59-34.2L205.59-34.2 205.59-24.6Q205.59-22.3 205.96-21.15 206.34-20 207.49-18.45L207.49-18.45 215.14-8.2 215.14-1.8Q215.14-0.85 215.56-0.43 215.99 0 216.94 0L216.94 0ZM221.59-13.05L221.59-13.05 221.24-13.05 221.24-4.5 220.74-4.5 220.74-13.05 220.24-13.05Q219.14-13.05 218.26-13.55 217.39-14.05 216.59-15.15L216.59-15.15 211.74-21.9Q211.19-22.65 211.09-23.65 210.99-24.65 210.99-25.75L210.99-25.75 210.99-31.5 211.49-31.5 211.49-25.75Q211.49-24.7 211.59-23.78 211.69-22.85 212.19-22.1L212.19-22.1 217.04-15.35Q217.69-14.35 218.54-13.95 219.39-13.55 220.24-13.55L220.24-13.55 221.59-13.55Q222.54-13.55 223.31-13.98 224.09-14.4 224.84-15.35L224.84-15.35 229.84-22.1Q230.34-22.75 230.44-23.73 230.54-24.7 230.54-25.75L230.54-25.75 230.54-31.5 231.04-31.5 231.04-25.75Q231.04-24.65 230.96-23.68 230.89-22.7 230.29-21.9L230.29-21.9 225.29-15.15Q224.49-14.05 223.61-13.55 222.74-13.05 221.59-13.05ZM280.28 5.95L280.28 5.95 268.08 5.95Q261.53 5.95 258.41 2.55 255.28-0.85 255.28-6.25L255.28-6.25 255.28-20.3Q255.28-23.05 256.08-25.08 256.88-27.1 258.43-28.45L258.43-28.45 264.93-33.9Q266.48-35.2 268.88-35.85 271.28-36.5 274.53-36.5L274.53-36.5 286.73-36.5Q287.93-36.5 288.48-35.95 289.03-35.4 289.03-34.2L289.03-34.2 289.03-28.15Q289.03-27.5 288.86-27.05 288.68-26.6 288.33-26.3L288.33-26.3 281.83-20.9Q281.63-20.7 281.21-20.55 280.78-20.4 280.28-20.4L280.28-20.4 274.13-20.4 274.13-11.95Q274.13-10.9 274.78-10.48 275.43-10.05 276.68-10.05L276.68-10.05 286.73-10.05Q287.93-10.05 288.48-9.5 289.03-8.95 289.03-7.75L289.03-7.75 289.03-1.8Q289.03-1.15 288.86-0.7 288.68-0.25 288.33 0.05L288.33 0.05 281.83 5.45Q281.63 5.65 281.21 5.8 280.78 5.95 280.28 5.95ZM274.53 0L286.73 0Q287.68 0 288.11-0.43 288.53-0.85 288.53-1.8L288.53-1.8 288.53-7.75Q288.53-8.7 288.11-9.13 287.68-9.55 286.73-9.55L286.73-9.55 276.68-9.55Q275.13-9.55 274.38-10.13 273.63-10.7 273.63-11.95L273.63-11.95 273.63-23.85Q273.63-25.1 274.38-25.73 275.13-26.35 276.68-26.35L276.68-26.35 286.73-26.35Q287.68-26.35 288.11-26.78 288.53-27.2 288.53-28.15L288.53-28.15 288.53-34.2Q288.53-35.15 288.11-35.58 287.68-36 286.73-36L286.73-36 274.53-36Q268.28-36 265.26-33.48 262.23-30.95 262.23-25.75L262.23-25.75 262.23-10.2Q262.23-5 265.26-2.5 268.28 0 274.53 0L274.53 0ZM275.63-5L283.98-5 283.98-4.5 275.63-4.5Q270.78-4.5 269.21-6 267.63-7.5 267.63-10.95L267.63-10.95 267.63-24.95Q267.63-28.5 269.23-30 270.83-31.5 275.63-31.5L275.63-31.5 283.98-31.5 283.98-31 275.63-31Q271.23-31 269.68-29.63 268.13-28.25 268.13-24.95L268.13-24.95 268.13-10.95Q268.13-7.7 269.63-6.35 271.13-5 275.63-5L275.63-5ZM326.93-1.85L320.48 3.55Q318.73 5.05 315.58 5.88 312.43 6.7 307.48 6.7L307.48 6.7Q302.58 6.7 299.46 5.68 296.33 4.65 294.56 2.95 292.78 1.25 292.11-0.95 291.43-3.15 291.43-5.5L291.43-5.5 291.43-21.05Q291.43-23.35 292.08-25.33 292.73-27.3 294.43-28.7L294.43-28.7 300.93-34.1Q302.68-35.6 305.81-36.43 308.93-37.25 313.93-37.25L313.93-37.25Q318.83-37.25 321.96-36.45 325.08-35.65 326.86-34.23 328.63-32.8 329.28-30.83 329.93-28.85 329.93-26.5L329.93-26.5 329.93-9.45Q329.93-7.15 329.28-5.2 328.63-3.25 326.93-1.85L326.93-1.85ZM329.43-9.45L329.43-9.45 329.43-26.5Q329.43-28.8 328.75-30.68 328.08-32.55 326.36-33.9 324.63-35.25 321.61-36 318.58-36.75 313.93-36.75L313.93-36.75Q309.28-36.75 306.23-36 303.18-35.25 301.46-33.9 299.73-32.55 299.06-30.68 298.38-28.8 298.38-26.5L298.38-26.5 298.38-9.45Q298.38-7.15 299.06-5.28 299.73-3.4 301.46-2.08 303.18-0.75 306.23 0 309.28 0.75 313.93 0.75L313.93 0.75Q318.58 0.75 321.61 0 324.63-0.75 326.36-2.08 328.08-3.4 328.75-5.28 329.43-7.15 329.43-9.45ZM323.98-25.35L323.98-10.6Q323.98-7.6 321.83-5.73 319.68-3.85 313.83-3.85L313.83-3.85Q307.98-3.85 305.88-5.73 303.78-7.6 303.78-10.6L303.78-10.6 303.78-25.35Q303.78-28.35 305.88-30.23 307.98-32.1 313.83-32.1L313.83-32.1Q319.68-32.1 321.83-30.23 323.98-28.35 323.98-25.35L323.98-25.35ZM304.28-25.35L304.28-10.6Q304.28-7.8 306.28-6.08 308.28-4.35 313.83-4.35L313.83-4.35Q319.38-4.35 321.43-6.08 323.48-7.8 323.48-10.6L323.48-10.6 323.48-25.35Q323.48-28.15 321.43-29.88 319.38-31.6 313.83-31.6L313.83-31.6Q308.28-31.6 306.28-29.88 304.28-28.15 304.28-25.35L304.28-25.35ZM309.73-11.25L309.73-11.25 309.73-24.7Q309.73-25.65 310.48-26.33 311.23-27 313.93-27L313.93-27Q316.63-27 317.38-26.33 318.13-25.65 318.13-24.7L318.13-24.7 318.13-11.25Q318.13-10.25 317.38-9.58 316.63-8.9 313.93-8.9L313.93-8.9Q311.23-8.9 310.48-9.58 309.73-10.25 309.73-11.25ZM310.23-20.7L310.23-11.25Q310.23-10.75 310.43-10.38 310.63-10 311.18-9.75L311.18-9.75 311.18-19.25Q311.18-19.75 310.98-20.13 310.78-20.5 310.23-20.7L310.23-20.7ZM347.38-31.1L347.38-31.1 365.78-10.4 365.78-31.5 366.28-31.5 366.28-4.5 365.78-4.5 365.78-9.65 346.88-30.85Q346.83-30.9 346.75-30.95 346.68-31 346.63-31L346.63-31Q346.58-31 346.55-30.95 346.53-30.9 346.53-30.85L346.53-30.85 346.53-4.5 346.03-4.5 346.03-30.95Q346.03-31.25 346.23-31.4 346.43-31.55 346.63-31.55L346.63-31.55Q346.83-31.55 346.98-31.45 347.13-31.35 347.38-31.1ZM342.58 0L350.08 0Q351.03 0 351.45-0.43 351.88-0.85 351.88-1.8L351.88-1.8 351.88-18.3 360.43-7.95 360.43-1.8Q360.43-0.85 360.85-0.43 361.28 0 362.23 0L362.23 0 369.73 0Q370.68 0 371.1-0.43 371.53-0.85 371.53-1.8L371.53-1.8 371.53-34.2Q371.53-35.15 371.1-35.58 370.68-36 369.73-36L369.73-36 362.23-36Q361.28-36 360.85-35.58 360.43-35.15 360.43-34.2L360.43-34.2 360.43-23.55 350.73-34.65Q350.08-35.4 349.4-35.7 348.73-36 347.78-36L347.78-36 342.58-36Q341.63-36 341.2-35.58 340.78-35.15 340.78-34.2L340.78-34.2 340.78-1.8Q340.78-0.85 341.2-0.43 341.63 0 342.58 0L342.58 0ZM351.68 0.05L351.68 0.05 345.18 5.45Q344.98 5.65 344.55 5.8 344.13 5.95 343.63 5.95L343.63 5.95 336.13 5.95Q334.93 5.95 334.38 5.4 333.83 4.85 333.83 3.65L333.83 3.65 333.83-28.75Q333.83-29.4 334-29.85 334.18-30.3 334.53-30.6L334.53-30.6 340.98-36.05Q341.23-36.25 341.65-36.38 342.08-36.5 342.58-36.5L342.58-36.5 347.78-36.5Q348.88-36.5 349.63-36.15 350.38-35.8 351.13-35L351.13-35 354.58-31 360.63-36.05Q360.88-36.25 361.3-36.38 361.73-36.5 362.23-36.5L362.23-36.5 369.73-36.5Q370.93-36.5 371.48-35.95 372.03-35.4 372.03-34.2L372.03-34.2 372.03-1.8Q372.03-1.15 371.85-0.7 371.68-0.25 371.33 0.05L371.33 0.05 364.83 5.45Q364.63 5.65 364.2 5.8 363.78 5.95 363.28 5.95L363.28 5.95 355.78 5.95Q354.58 5.95 354.03 5.4 353.48 4.85 353.48 3.65L353.48 3.65 353.48-2.3 352.38-3.65 352.38-1.8Q352.38-1.15 352.2-0.7 352.03-0.25 351.68 0.05Z" opacity="1" transform="matrix(1,0,0,1,0,0)" fill="#ffffff" class="wordmark-text-0" data-fill-palette-color="primary" id="text-0"></path></svg></g></svg></g></svg></g></svg></g><g transform="matrix(1,0,0,1,165.27832108166578,0)"><svg viewBox="0 0 64.9633578366685 64.96335783666848" height="64.96335783666848" width="64.9633578366685"><g><svg></svg></g><g id="icon-0"><svg viewBox="0 0 64.9633578366685 64.96335783666848" height="64.96335783666848" width="64.9633578366685"><g><path transform="scale(0.64963,0.64963)" d="M30 100c-16.569 0-30-13.431-30-30v-40c0-16.569 13.431-30 30-30h40c16.569 0 30 13.431 30 30v40c0 16.569-13.431 30-30 30z" fill="#ffffff" fill-rule="nonzero" stroke="none" stroke-width="1" stroke-linecap="butt" stroke-linejoin="miter" stroke-miterlimit="10" stroke-dasharray="" stroke-dashoffset="0" font-family="none" font-weight="none" font-size="none" text-anchor="none" style="mix-blend-mode: normal" data-fill-palette-color="accent"></path></g><g transform="matrix(1,0,0,1,12.992671567333705,12.992671567333698)"><svg viewBox="0 0 38.97801470200108 38.97801470200108" height="38.97801470200108" width="38.97801470200108"><g><svg xmlns="http://www.w3.org/2000/svg" data-name="Layer 1" viewBox="0 0 128 128" x="0" y="0" height="38.97801470200108" width="38.97801470200108" class="icon-cg-0" data-fill-palette-color="quaternary" id="cg-0"><path d="M124 77h-8V73a2 2 0 0 0 0-4h-3V65h3a2 2 0 0 0 0-4V57a2 2 0 0 0 0-4H97a5.987 5.987 0 0 0-5.437 8.522 5.992 5.992 0 0 0 0 10.956A5.911 5.911 0 0 0 91.35 77H83.839c-0.381-1.912-0.761-3.9-0.839-4.454a2 2 0 0 0-1.197-1.822c-3.301-1.448-11.9-5.218-18.115-0.188-5.959-4.857-13.633-1.501-17.389 0.143l-0.1 0.044a2 2 0 0 0-1.166 1.471L44.15 77H36V68a4.005 4.005 0 0 0-3.171-3.911l6.692-7.83a2 2 0 1 0-3.041-2.599L28 63.582V53a2 2 0 0 0-4 0V64H22a4.005 4.005 0 0 0-4 4v9H4a4 4 0 0 0-4 4v4a4 4 0 0 0 4 4h9v35a4 4 0 0 0 4 4h4a4 4 0 0 0 4-4V89h78v35a4 4 0 0 0 4 4h4a4 4 0 0 0 4-4V89h9a4 4 0 0 0 4-4V81A4 4 0 0 0 124 77ZM97 57h15v4H97a2 2 0 0 1 0-4Zm-3 8h15v4H94a2 2 0 0 1 0-4Zm18 8v4H97a2 2 0 0 1 0-4Zm-63.226 0.968c4.41-1.862 9.256-3.295 12.796 0.025 0.152 0.147 0.305 0.293 0.456 0.459A2.001 2.001 0 0 0 63.5 75.1h0.37a1.999 1.999 0 0 0 1.474-0.648c0.152-0.166 0.313-0.323 0.474-0.472 3.56-3.292 8.869-1.889 13.357-0.029 0.123 0.729 0.315 1.708 0.584 3.049H48.217ZM22 68H32v9H22Zm-1 56H17V89h4Zm90 0h-4V89h4Zm13-39H4V81H124Z" fill="#000000" data-fill-palette-color="quaternary"></path><path d="M86.97 20.619l-24-6a4 4 0 0 0-1.94 0l-24 6a4 4 0 0 0 0 7.762L43 29.873V41.05a4 4 0 0 0 3.126 3.903c0.689 0.154 1.415 0.328 2.174 0.51A57.857 57.857 0 0 0 62 47.5a57.857 57.857 0 0 0 13.7-2.037c0.759-0.182 1.485-0.356 2.174-0.51A4 4 0 0 0 81 41.05V29.873l5-1.25V33.5a2 2 0 0 0 0 4h4a2 2 0 0 0 0-4v-9A4 4 0 0 0 86.97 20.619ZM77 41.05c-4.02 0.9-9.27 2.45-15 2.45s-10.98-1.55-15-2.45V30.873l14.03 3.508a4 4 0 0 0 1.94 0L77 30.873ZM62 30.5l-24-6 24-6 24 6Z" fill="#000000" data-fill-palette-color="quaternary"></path><path d="M43.168 58a6.061 6.061 0 0 1-0.607 0.858L39.875 62H85.355a10.098 10.098 0 0 1 1.689-2.169C87.021 59.556 87 59.281 87 59c0-0.338 0.018-0.671 0.051-1Z" fill="#000000" data-fill-palette-color="quaternary"></path><path d="M124 0H4A4 4 0 0 0 0 4V58a4 4 0 0 0 4 4H20V58H4V4H124V58h-2.819a6.027 6.027 0 0 1-0.713 1c0.015 0.017 0.026 0.037 0.041 0.054a6.03 6.03 0 0 1 0.558 0.747c0.027 0.042 0.052 0.085 0.078 0.128a5.962 5.962 0 0 1 0.423 0.847c0.017 0.041 0.03 0.084 0.046 0.125a5.93 5.93 0 0 1 0.273 0.948c0.006 0.03 0.009 0.061 0.014 0.092 0.003 0.019 0.002 0.04 0.005 0.059H124a4 4 0 0 0 4-4V4A4 4 0 0 0 124 0Z" fill="#000000" data-fill-palette-color="quaternary"></path></svg></g></svg></g></svg></g></svg></g><g></g></svg></g><defs></defs></svg><rect width="395.52" height="123.06729958870741" fill="none" stroke="none" visibility="hidden"></rect></g></svg></g></svg>