<?xml version="1.0" encoding="UTF-8"?>
<svg id="Layer_2" data-name="Layer 2" xmlns="http://www.w3.org/2000/svg" viewBox="0 0 67.87 67.87">
  <defs>
    <style>
      .cls-1 {
        fill: #3f3f41;
        fill-rule: evenodd;
      }
    </style>
  </defs>
  <g id="_18" data-name="18">
    <path class="cls-1" d="m56.66,33.29c-1.18,0-1.95.77-1.95,2.03v28.21h-13.91v-11.44c0-1.01-.79-2.03-1.75-2.03h-10.05c-1.16,0-2.13,1.01-2.13,2.03v11.44h-13.73v-27.2c0-1.26-.97-2.03-1.93-2.03-1.16,0-1.93.77-1.93,2.03v29.49c0,1.02.77,2.05,1.93,2.05h17.79c.97,0,1.73-1.03,1.73-2.05v-11.68h6.19v11.68c0,1.02.98,2.05,2.13,2.05h17.61c.97,0,1.93-1.03,1.93-2.05v-30.5c0-1.26-.97-2.03-1.93-2.03h0Zm10.62,1.52h0C54.51,21.08,46.59,12.7,35.18.75c-.38-.51-.77-.75-1.16-.75-.57,0-1.16.25-1.54.75L.57,34.56c-.38.51-.57,1.01-.57,1.52s.2,1.01.57,1.26c.79,1.02,1.93,1.02,2.72,0L34.02,5.07l30.55,32.78c.2.26.77.51,1.36.51s.97-.25,1.34-.51c.79-.75.79-2.28,0-3.04h0Z"/>
  </g>
</svg>