<?xml version="1.0" encoding="UTF-8"?>
<svg id="Layer_2" data-name="Layer 2" xmlns="http://www.w3.org/2000/svg" viewBox="0 0 87.49 86.3">
  <g id="OBJECTS">
    <path d="m87.42,5.04c0-.09-.02-.17-.04-.25-.01-.1-.02-.19-.04-.29-.02-.1-.05-.19-.07-.29-.02-.08-.04-.16-.06-.24-.03-.09-.06-.19-.1-.28-.03-.08-.05-.16-.09-.24-.04-.09-.08-.17-.12-.26-.04-.08-.07-.16-.11-.24-.05-.08-.1-.16-.15-.25-.04-.07-.09-.15-.14-.22-.06-.09-.13-.18-.2-.27-.04-.06-.08-.11-.13-.17-.23-.29-.5-.55-.78-.78-.05-.04-.11-.08-.17-.13-.09-.07-.18-.14-.27-.2-.07-.05-.15-.09-.22-.13-.08-.05-.16-.1-.25-.15-.08-.04-.16-.08-.24-.11-.09-.04-.17-.08-.26-.12-.08-.03-.16-.06-.24-.09-.09-.03-.18-.07-.28-.1-.08-.02-.16-.04-.24-.06-.1-.02-.19-.05-.29-.07-.09-.02-.19-.03-.29-.04-.08-.01-.17-.03-.25-.04-.18-.02-.37-.03-.55-.03h-25.13C53.65,0,51.14,2.5,51.14,5.59c0,3.09,2.5,5.59,5.59,5.59h11.64S2.78,76.76,2.78,76.76c-2.18,2.18-2.18,5.72,0,7.9s5.72,2.18,7.9,0L76.27,19.08v11.64c0,3.09,2.5,5.59,5.59,5.59,1.54,0,2.94-.63,3.95-1.64s1.64-2.41,1.64-3.95V5.59c0-.18,0-.37-.03-.55Z"/>
    <path d="m82.45,86.27c.09,0,.17-.02.25-.04.1-.01.19-.02.29-.04.1-.02.19-.05.29-.07.08-.02.16-.04.24-.06.09-.03.19-.06.28-.1.08-.03.16-.05.24-.09.09-.04.17-.08.26-.12.08-.04.16-.07.24-.11.08-.05.16-.1.25-.15.07-.04.15-.09.22-.14.09-.06.18-.13.27-.2.06-.04.11-.08.17-.13.29-.23.55-.5.78-.78.04-.05.08-.11.13-.17.07-.09.14-.18.2-.27.05-.07.09-.15.13-.22.05-.08.1-.16.15-.25.04-.08.08-.16.11-.24.04-.09.08-.17.12-.26.03-.08.06-.16.09-.24.03-.09.07-.18.1-.28.02-.08.04-.16.06-.24.02-.1.05-.19.07-.29.02-.09.03-.19.04-.29.01-.08.03-.17.04-.25.02-.18.03-.37.03-.55v-25.13c0-3.09-2.5-5.59-5.59-5.59-3.09,0-5.59,2.5-5.59,5.59v11.64s-13.58-13.58-13.58-13.58c-2.18-2.18-5.72-2.18-7.9,0s-2.18,5.72,0,7.9l13.58,13.58h-11.64c-3.09,0-5.59,2.5-5.59,5.59,0,1.54.63,2.94,1.64,3.95s2.41,1.64,3.95,1.64h25.13c.18,0,.37,0,.55-.03Z"/>
    <path d="m28.64,21.14L9.54,2.04c-2.18-2.18-5.72-2.18-7.9,0s-2.18,5.72,0,7.9l19.1,19.1"/>
    <path d="m15.29,23.56l11.55,11.55c2.18,2.18,5.72,2.18,7.9,0s2.18-5.72,0-7.9l-11.55-11.55"/>
  </g>
</svg>